<?xml version="1.0" encoding="UTF-8" standalone="no"?>
<svg
   xmlns:dc="http://purl.org/dc/elements/1.1/"
   xmlns:cc="http://creativecommons.org/ns#"
   xmlns:rdf="http://www.w3.org/1999/02/22-rdf-syntax-ns#"
   xmlns:svg="http://www.w3.org/2000/svg"
   xmlns="http://www.w3.org/2000/svg"
   xmlns:sodipodi="http://sodipodi.sourceforge.net/DTD/sodipodi-0.dtd"
   xmlns:inkscape="http://www.inkscape.org/namespaces/inkscape"
   width="210mm"
   height="297mm"
   viewBox="0 0 210 297"
   version="1.1"
   id="svg988"
   inkscape:version="1.0.2-2 (e86c870879, 2021-01-15)"
   sodipodi:docname="desenho2.svg"
   inkscape:export-filename="C:\Users\Nicolas Macedo\Desktop\desenhos ink\desenho2.png"
   inkscape:export-xdpi="96"
   inkscape:export-ydpi="96">
  <defs
     id="defs982" />
  <sodipodi:namedview
     id="base"
     pagecolor="#ffffff"
     bordercolor="#666666"
     borderopacity="1.0"
     inkscape:pageopacity="0.0"
     inkscape:pageshadow="2"
     inkscape:zoom="1"
     inkscape:cx="101.25106"
     inkscape:cy="535.58102"
     inkscape:document-units="mm"
     inkscape:current-layer="layer1"
     inkscape:document-rotation="0"
     showgrid="false"
     inkscape:window-width="1805"
     inkscape:window-height="1030"
     inkscape:window-x="76"
     inkscape:window-y="106"
     inkscape:window-maximized="0" />
  <metadata
     id="metadata985">
    <rdf:RDF>
      <cc:Work
         rdf:about="">
        <dc:format>image/svg+xml</dc:format>
        <dc:type
           rdf:resource="http://purl.org/dc/dcmitype/StillImage" />
        <dc:title></dc:title>
      </cc:Work>
    </rdf:RDF>
  </metadata>
  <g
     inkscape:label="Layer 1"
     inkscape:groupmode="layer"
     id="layer1"
     sodipodi:insensitive="true">
    <g
       id="g1647"
       inkscape:label="Mãos">
      <path
         id="path1622"
         style="opacity:1;fill:#cae66b;fill-opacity:1;fill-rule:evenodd;stroke:#000000;stroke-width:0.8;stroke-miterlimit:4;stroke-dasharray:none;stroke-opacity:1"
         d="m 148.23281,194.66719 c 0,4.12442 -3.40084,7.48361 -7.63341,7.53992 -4.23256,0.0563 -7.72626,-3.21116 -7.84183,-7.33404 -0.11557,-4.12289 3.18987,-7.57129 7.41928,-7.74018 4.22941,-0.16888 7.82491,3.41602 8.05596,7.5343"
         sodipodi:nodetypes="csssc"
         inkscape:label="Mão1" />
      <path
         id="path1622-2"
         style="opacity:1;fill:#cae66b;fill-opacity:1;fill-rule:evenodd;stroke:#000000;stroke-width:0.8;stroke-miterlimit:4;stroke-dasharray:none;stroke-opacity:1"
         d="m 81.160963,195.12993 c 2.918799,4.70818 -4.383383,7.52523 -8.824035,7.53992 -4.232911,0.014 -8.156327,-2.08588 -8.238705,-6.20956 -0.191327,-9.57741 4.606125,-18.18357 7.41928,-7.74018 1.449183,5.37986 7.890547,-6.2648 9.64346,6.40982"
         sodipodi:nodetypes="csssc"
         inkscape:label="Mão2" />
    </g>
    <g
       id="g1651"
       inkscape:label="Chifres">
      <path
         style="opacity:1;fill:#beae93;fill-opacity:1;stroke:#000000;stroke-width:0.9;stroke-linecap:butt;stroke-linejoin:miter;stroke-miterlimit:4;stroke-dasharray:none;stroke-opacity:1"
         d="M 77.985936,102.3276 C 74.729391,97.140461 67.62489,85.492455 67.005729,90.553645 c -0.663389,1.567268 -1.407762,14.378995 -0.992188,20.306775 3.393207,-2.99975 7.873639,-5.88584 11.972395,-8.53282 z"
         id="path1587"
         sodipodi:nodetypes="cccc"
         inkscape:label="Chifre2" />
      <path
         style="opacity:1;fill:#beae93;fill-opacity:1;stroke:#000000;stroke-width:0.909726;stroke-linecap:butt;stroke-linejoin:miter;stroke-miterlimit:4;stroke-dasharray:none;stroke-opacity:1"
         d="m 133.86576,103.19927 c 3.32957,-5.183613 10.59343,-16.82368 11.22646,-11.765939 0.67827,1.566199 1.43933,14.369199 1.01445,20.292939 -3.46932,-2.99771 -8.05024,-5.88183 -12.24091,-8.527 z"
         id="path1587-6"
         sodipodi:nodetypes="cccc"
         inkscape:label="Chifre1" />
    </g>
    <path
       id="path1571"
       style="opacity:1;fill:#cde470;fill-opacity:1;fill-rule:evenodd;stroke:#000000;stroke-width:1.6;stroke-miterlimit:4;stroke-dasharray:none;stroke-opacity:1"
       d="m 162.41361,145.21756 c 1.49812,39.98928 -22.65385,55.54666 -55.91853,56.0313 -32.775722,0.47753 -60.725615,-18.71435 -58.632267,-51.55566 1.901773,-29.83581 23.835066,-55.368731 55.472927,-56.103027 30.86092,-0.716264 54.15817,23.905047 59.07787,51.627387"
       sodipodi:nodetypes="csssc"
       inkscape:label="Corpo" />
    <g
       id="g1656"
       inkscape:label="Olho">
      <path
         id="path1576"
         style="opacity:1;fill:#ffffff;fill-opacity:1;fill-rule:evenodd;stroke:#000000;stroke-width:1.6;stroke-miterlimit:4;stroke-dasharray:none;stroke-opacity:1"
         d="m 140.85104,144.19192 c 2.32115,19.4504 -15.04348,34.30567 -35.58513,35.14261 -19.864728,0.80937 -34.952199,-14.12538 -35.495002,-33.63392 -0.542801,-19.50854 14.982131,-35.8256 34.846732,-36.62471 19.8646,-0.79911 35.1482,15.62931 36.2334,35.11602"
         sodipodi:nodetypes="csssc"
         inkscape:label="Olho" />
      <path
         id="path1579"
         style="opacity:1;fill:#000000;fill-opacity:1;fill-rule:evenodd;stroke-width:0.264583"
         d="m 122.67671,144.45917 c -0.3286,10.08747 -7.32701,16.32388 -17.24891,17.23705 -10.262808,0.94455 -18.432486,-6.76537 -18.825449,-17.50252 -0.401914,-10.98172 8.566971,-19.99409 19.400279,-19.36236 10.28937,0.60001 17.71515,9.96826 16.67408,19.62783"
         sodipodi:nodetypes="csssc"
         inkscape:label="Pupila" />
      <path
         id="path1582"
         style="opacity:1;fill:#ffffff;fill-opacity:1;fill-rule:evenodd;stroke-width:0.264583"
         d="m 105.63975,136.53563 c -0.12084,2.52664 -2.59135,5.22404 -5.14479,5.27705 -3.14231,0.0652 -5.502933,-2.00594 -5.588743,-5.0747 -0.08581,-3.06876 2.368499,-5.63549 5.508863,-5.76119 3.14036,-0.1257 5.05311,2.49351 5.22467,5.55884"
         sodipodi:nodetypes="csssc"
         inkscape:label="Brilho" />
    </g>
  </g>
</svg>
